<svg xmlns="http://www.w3.org/2000/svg" viewBox="0 0 64 64">
  <defs>
    <linearGradient id="horn" x1="0%" y1="0%" x2="100%" y2="100%">
      <stop offset="0%" style="stop-color:#8B6914"/>
      <stop offset="100%" style="stop-color:#5C4A0E"/>
    </linearGradient>
  </defs>
  <!-- Horn -->
  <path d="M32 4 C28 4 18 20 16 36 C14 48 18 58 26 60 C30 61 34 58 36 52 C40 40 44 24 42 12 C41 6 36 4 32 4Z" fill="url(#horn)" stroke="#3d2e06" stroke-width="1.5"/>
  <!-- Leaf 1 -->
  <path d="M28 28 C22 20 14 22 12 26 C10 30 16 34 24 32 Z" fill="#4a7c3f"/>
  <!-- Leaf 2 -->
  <path d="M34 22 C38 14 46 14 48 18 C50 22 42 26 36 24 Z" fill="#5a9c4a"/>
  <!-- Small sprout -->
  <path d="M30 36 C29 32 30 28 32 24" fill="none" stroke="#4a7c3f" stroke-width="2" stroke-linecap="round"/>
</svg>
